<svg xmlns="http://www.w3.org/2000/svg" width="158" height="48" fill="#fff" viewBox="0 0 141 39"><path d="M27.5312 6.3226C27.5312 5.03022 28.5603 4 29.8651 4c1.3047 0 2.3338 1.03022 2.3338 2.3226s-1.0291 2.3226-2.3338 2.3226c-1.3002 0-2.3339-1.03022-2.3339-2.3226Zm4.3093 0c0-1.09461-.9096-1.96846-1.9754-1.96846-1.0659 0-1.9755.86925-1.9755 1.96846 0 1.09921.9096 1.96846 1.9755 1.96846 1.0658 0 1.9754-.86925 1.9754-1.96846Zm-.8683 1.26018h-.4272l-.7626-1.17279h-.4273v1.17279h-.3583V5.03482h1.1071c.4595 0 .9051.12418.9051.67149 0 .50131-.3492.68528-.804.69908l.7672 1.17739Zm-1.1898-1.53153c.317 0 .8682.05979.8682-.34494 0-.26216-.3445-.30815-.6202-.30815h-.6753v.65769h.4273v-.0046ZM2.59107 4.03711V17.3288l.06432.0644c1.07042-1.4579 2.46244-2.2674 4.34142-2.2674 4.20819 0 5.18219 3.0493 5.18219 6.6137v9.0466H9.58788v-8.5959c0-2.4652-.19295-4.6682-3.20668-4.6682-3.56042 0-3.79013 3.3068-3.79013 6.0296v7.2299H0V4.03711h2.59107ZM31.3326 29.7602c0 2.433 0 4.5395-1.5528 6.5493-1.4242 1.8167-3.6247 2.6906-5.8942 2.6906-4.2404 0-7.3827-2.6906-7.4792-7.0046h2.5911c.0321 2.8193 2.0719 4.6038 4.8559 4.6038 4.0153 0 4.8881-2.9481 4.8881-6.3837v-1.8167h-.0643c-1.2312 1.5867-3.2388 2.5295-5.2786 2.5295-4.4379 0-7.2541-3.7299-7.2541-7.975 0-4.2772 2.8484-8.1038 7.3506-8.1038 2.1041 0 3.9509.9382 5.1821 2.594h.0643v-2.1755h2.5911v14.4921Zm-12.5327-7.0367c0 2.9802 1.7504 5.8042 4.9846 5.8042 3.3353 0 5.0857-2.6906 5.0857-5.772 0-3.0493-1.9112-5.5099-5.1178-5.5099-3.0092 0-4.9525 2.6261-4.9525 5.4777ZM131.251 17.9297v12.87h-2.6v-12.87h-1.592v-2.405h1.592v-5.4925h2.6v5.4925h2.73v2.405h-2.73ZM123.893 17.93l-2.177 1.1375c-.358-.8125-1.138-1.56-2.08-1.56-.91 0-1.885.715-1.885 1.69 0 1.3975 1.755 1.9175 3.542 2.665 1.788.7475 3.543 1.82 3.543 4.3875 0 2.8925-2.34 4.9725-5.168 4.9725-2.567 0-4.582-1.4625-5.395-3.8675l2.308-.975c.65 1.43 1.397 2.4375 3.12 2.4375 1.397 0 2.47-.9425 2.47-2.34 0-3.4125-6.89-2.2425-6.89-7.0525 0-2.5675 2.08-4.3225 4.55-4.3225 1.755 0 3.38 1.235 4.062 2.8275ZM101.967 15.525v1.8525h.065c1.073-1.4625 2.47-2.275 4.355-2.275 4.225 0 5.2 3.055 5.2 6.63V30.8h-2.6v-8.6125c0-2.47-.195-4.68-3.217-4.68-3.575 0-3.803 3.315-3.803 6.045V30.8h-2.5998V15.525h2.5998ZM83.1992 3.9873h2.6v13.325l.065.065c1.0725-1.4625 2.47-2.275 4.355-2.275 4.225 0 5.2 3.055 5.2 6.63v9.0675h-2.6v-8.6125c0-2.47-.195-4.68-3.2175-4.68-3.575 0-3.8025 3.315-3.8025 6.045v7.2475h-2.6V3.9873ZM135.98 6.3226C135.98 5.03022 137.01 4 138.314 4c1.305 0 2.334 1.03022 2.334 2.3226s-1.029 2.3226-2.334 2.3226c-1.3 0-2.334-1.03022-2.334-2.3226Zm4.31 0c0-1.09461-.91-1.96846-1.976-1.96846-1.066 0-1.975.86925-1.975 1.96846 0 1.09921.909 1.96846 1.975 1.96846s1.976-.86925 1.976-1.96846Zm-.869 1.26018h-.427l-.762-1.17279h-.428v1.17279h-.358V5.03482h1.107c.46 0 .905.12418.905.67149 0 .50131-.349.68528-.804.69908l.767 1.17739Zm-1.189-1.53153c.317 0 .868.05979.868-.34494 0-.26216-.345-.30815-.62-.30815h-.676v.65769h.428v-.0046Z"/><path d="M57 0h1v35h-1z" opacity=".5"/></svg>
